<?xml version="1.0" standalone="no"?>
<!DOCTYPE svg PUBLIC "-//W3C//DTD SVG 20010904//EN"
 "http://www.w3.org/TR/2001/REC-SVG-20010904/DTD/svg10.dtd">
<svg version="1.0" xmlns="http://www.w3.org/2000/svg"
 width="105.000000pt" height="105.000000pt" viewBox="0 0 105.000000 105.000000"
 preserveAspectRatio="xMidYMid meet">
<metadata>
Created by potrace 1.16, written by Peter Selinger 2001-2019
</metadata>
<g transform="translate(0.000000,105.000000) scale(0.100000,-0.100000)"
fill="#000000" stroke="none">
<path d="M379 1036 c-127 -36 -256 -139 -318 -255 -46 -86 -61 -150 -61 -256
0 -106 15 -170 61 -256 63 -118 192 -220 323 -255 66 -18 216 -18 282 0 131
35 260 137 323 255 46 86 61 150 61 256 0 106 -15 170 -61 256 -63 118 -192
220 -323 255 -63 17 -225 17 -287 0z"/>
</g>
</svg>
