<?xml version="1.0" encoding="iso-8859-1"?>
<!-- Generator: Adobe Illustrator 22.1.0, SVG Export Plug-In . SVG Version: 6.00 Build 0)  -->
<svg xmlns="http://www.w3.org/2000/svg" xmlns:xlink="http://www.w3.org/1999/xlink" version="1.1" id="Layer_1_1_" x="0px" y="0px" viewBox="0 0 64 64" style="enable-background:new 0 0 64 64;" xml:space="preserve" width="512" height="512">
<g>
	<g>
		<path style="fill:#F0BC5E;" d="M35,43c1.105,0,2-0.895,2-2c0-1.105-0.895-2-2-2c-1.194,0-2.255-0.764-2.632-1.897l-0.12-0.359    C31.503,34.508,29.411,33,27.054,33c-0.696,0-1.386,0.133-2.033,0.392l-0.307,0.123C22.26,34.496,19.642,35,17,35    c0,5.419,2.883,10.152,7.19,12.788C26.718,44.764,30.451,43,34.403,43H35z"/>
	</g>
	<g>
		<path style="fill:#F0BC5E;" d="M32,20c-3.382,0-6.491,1.132-9,3.02v2.723C23,27.542,24.458,29,26.257,29    c1.089,0,2.106-0.544,2.71-1.45l0.066-0.099c0.604-0.906,1.621-1.45,2.71-1.45C34.094,26,36,27.906,36,30.257V30.5    c0,1.381,1.119,2.5,2.5,2.5s2.5,1.119,2.5,2.5c0,2.485,2.015,4.5,4.5,4.5H46h0.128C46.683,38.434,47,36.756,47,35    C47,26.716,40.284,20,32,20z"/>
	</g>
	<g>
		<path fill="#ffffff" d="M61,53V20c0-2.757-2.243-5-5-5h-5V8c0-1.654-1.346-3-3-3H33.414l-3.121-3.121C29.727,1.312,28.973,1,28.172,1H16    c-1.654,0-3,1.346-3,3v11H8c-2.757,0-5,2.243-5,5v33H1v5c0,2.757,2.243,5,5,5h52c2.757,0,5-2.243,5-5v-5H61z M56,17    c1.654,0,3,1.346,3,3v33h-2V21c0-1.103-0.897-2-2-2h-4v-2H56z M23,55h18v1c0,0.552-0.448,1-1,1H24c-0.552,0-1-0.448-1-1V55z M9,53    V21h4v5c0,1.654,1.346,3,3,3h1.178C16.424,30.855,16,32.878,16,35c0,8.822,7.178,16,16,16s16-7.178,16-16    c0-2.122-0.424-4.145-1.178-6H48c1.654,0,3-1.346,3-3v-5h4v32H9z M15,11h34v15c0,0.552-0.448,1-1,1h-2.165    c-2.772-4.774-7.928-8-13.835-8s-11.063,3.226-13.835,8H16c-0.552,0-1-0.448-1-1V11z M32,21c7.72,0,14,6.28,14,14s-6.28,14-14,14    s-14-6.28-14-14S24.28,21,32,21z M16,3h12.172c0.263,0,0.521,0.106,0.707,0.293L32.586,7H48c0.552,0,1,0.448,1,1v1H15V4    C15,3.448,15.448,3,16,3z M5,20c0-1.654,1.346-3,3-3h5v2H9c-1.103,0-2,0.897-2,2v32H5V20z M61,58c0,1.654-1.346,3-3,3H6    c-1.654,0-3-1.346-3-3v-3h18v1c0,1.654,1.346,3,3,3h16c1.654,0,3-1.346,3-3v-1h18V58z"/>
		<rect fill="#ffffff" x="7" y="57" width="2" height="2"/>
		<rect fill="#ffffff" x="11" y="57" width="2" height="2"/>
		<rect fill="#ffffff" x="15" y="57" width="2" height="2"/>
		<rect fill="#ffffff" x="17" y="5" width="12" height="2"/>
	</g>
</g>
</svg>
