<?xml version="1.0" encoding="iso-8859-1"?>
<!-- Generator: Adobe Illustrator 22.1.0, SVG Export Plug-In . SVG Version: 6.00 Build 0)  -->
<svg xmlns="http://www.w3.org/2000/svg" xmlns:xlink="http://www.w3.org/1999/xlink" version="1.1" id="Layer_1_1_" x="0px" y="0px" viewBox="0 0 64 64" style="enable-background:new 0 0 64 64;" xml:space="preserve" width="512" height="512">
<g>
	<g>
		<path style="fill:#F0BC5E;" d="M43,35.279l-2.456-0.818l1.158-2.315l-3.848-3.848l-2.315,1.158L34.721,27h-5.441l-0.818,2.456    l-2.315-1.158l-3.848,3.848l1.158,2.315L21,35.279v5.441l2.456,0.818l-1.158,2.315l3.848,3.848l2.315-1.158L29.279,49h5.441    l0.818-2.456l2.315,1.158l3.848-3.848l-1.158-2.315L43,40.721V35.279z M32,42c-2.209,0-4-1.791-4-4c0-2.209,1.791-4,4-4    s4,1.791,4,4C36,40.209,34.209,42,32,42z"/>
	</g>
	<g>
		<rect x="5" y="26" style="fill:#F0BC5E;" width="10" height="16"/>
	</g>
	<g>
		<rect x="49" y="26" style="fill:#F0BC5E;" width="10" height="16"/>
	</g>
	<g>
		<path fill="#ffffff" d="M63,53V3H1v50h14.586l-2.301,2.301C12.894,55.113,12.462,55,12,55c-1.654,0-3,1.346-3,3s1.346,3,3,3s3-1.346,3-3    c0-0.462-0.113-0.894-0.301-1.285l8.815-8.815l-1.414-1.414L17.586,51H3V13h58v38H46.414l-4.515-4.515l-1.414,1.414l8.815,8.815    C49.113,57.106,49,57.538,49,58c0,1.654,1.346,3,3,3s3-1.346,3-3s-1.346-3-3-3c-0.462,0-0.894,0.113-1.285,0.301L48.414,53H63z     M12,59c-0.551,0-1-0.448-1-1s0.449-1,1-1s1,0.448,1,1S12.551,59,12,59z M3,11V5h58v6H3z M53,58c0,0.552-0.449,1-1,1s-1-0.448-1-1    s0.449-1,1-1S53,57.448,53,58z"/>
		<rect fill="#ffffff" x="5" y="7" width="2" height="2"/>
		<rect fill="#ffffff" x="9" y="7" width="2" height="2"/>
		<rect fill="#ffffff" x="13" y="7" width="2" height="2"/>
		<path fill="#ffffff" d="M32,33c-2.757,0-5,2.243-5,5s2.243,5,5,5s5-2.243,5-5S34.757,33,32,33z M32,41c-1.654,0-3-1.346-3-3s1.346-3,3-3    s3,1.346,3,3S33.654,41,32,41z"/>
		<path fill="#ffffff" d="M23.515,28.101l-8.815-8.815C14.887,18.894,15,18.462,15,18c0-1.654-1.346-3-3-3s-3,1.346-3,3s1.346,3,3,3    c0.462,0,0.894-0.113,1.285-0.301l8.815,8.815L23.515,28.101z M11,18c0-0.551,0.449-1,1-1s1,0.449,1,1s-0.449,1-1,1    S11,18.551,11,18z"/>
		<path fill="#ffffff" d="M41.899,29.515l8.815-8.815C51.106,20.887,51.538,21,52,21c1.654,0,3-1.346,3-3s-1.346-3-3-3s-3,1.346-3,3    c0,0.462,0.113,0.894,0.301,1.285l-8.815,8.815L41.899,29.515z M52,17c0.551,0,1,0.449,1,1s-0.449,1-1,1s-1-0.449-1-1    S51.449,17,52,17z"/>
		<rect fill="#ffffff" x="5" y="25" width="10" height="2"/>
		<rect fill="#ffffff" x="5" y="29" width="10" height="2"/>
		<rect fill="#ffffff" x="5" y="33" width="10" height="2"/>
		<rect fill="#ffffff" x="5" y="37" width="10" height="2"/>
		<rect fill="#ffffff" x="5" y="41" width="10" height="2"/>
		<rect fill="#ffffff" x="49" y="25" width="10" height="2"/>
		<rect fill="#ffffff" x="49" y="29" width="10" height="2"/>
		<rect fill="#ffffff" x="49" y="33" width="10" height="2"/>
		<rect fill="#ffffff" x="49" y="37" width="10" height="2"/>
		<rect fill="#ffffff" x="49" y="41" width="10" height="2"/>
	</g>
</g>
</svg>
